<?xml version="1.0" encoding="UTF-8" standalone="no"?>
<!-- Created with Inkscape (http://www.inkscape.org/) -->

<svg
   width="210mm"
   height="297mm"
   viewBox="0 0 210 297"
   version="1.1"
   id="svg1"
   inkscape:version="1.3 (0e150ed, 2023-07-21)"
   sodipodi:docname="olivia-logo.svg"
   xmlns:inkscape="http://www.inkscape.org/namespaces/inkscape"
   xmlns:sodipodi="http://sodipodi.sourceforge.net/DTD/sodipodi-0.dtd"
   xmlns="http://www.w3.org/2000/svg"
   xmlns:svg="http://www.w3.org/2000/svg">
  <sodipodi:namedview
     id="namedview1"
     pagecolor="#ffffff"
     bordercolor="#000000"
     borderopacity="0.25"
     inkscape:showpageshadow="2"
     inkscape:pageopacity="0.0"
     inkscape:pagecheckerboard="0"
     inkscape:deskcolor="#d1d1d1"
     inkscape:document-units="mm"
     inkscape:zoom="0.78751403"
     inkscape:cx="361.89831"
     inkscape:cy="474.91217"
     inkscape:window-width="1888"
     inkscape:window-height="1027"
     inkscape:window-x="42"
     inkscape:window-y="25"
     inkscape:window-maximized="1"
     inkscape:current-layer="layer1" />
  <defs
     id="defs1" />
  <g
     inkscape:label="Capa 1"
     inkscape:groupmode="layer"
     id="layer1">
    <g
       id="g1"
       transform="matrix(0.30707611,0,0,0.3510461,49.952206,51.536068)">
      <path
         id="path25"
         d="m 490.81938,345.47572 c 5.3834,5.10117 5.68325,13.6031 0.74083,19.1276 C 452.42659,408.3372 314.71274,545.31022 73.881928,475.52372 -88.163006,428.56547 -134.49895,312.0218 -145.56349,237.07416 c -3.54118,-23.89011 -3.4812,-43.55746 -2.46062,-55.40373 0.67982,-7.96221 6.60225,-14.66498 14.48506,-16.00554 61.843711,-10.46337 79.630775,-58.20127 93.995877,-79.72777 0,0 44.4782307,-198.89611 108.761397,-216.22455 8.223249,-2.21897 16.527621,-1.72155 25.06837,1.78153 18.788936,7.66233 38.794986,29.869692 61.785496,69.786503 0,0 2.20134,-1.001898 6.14186,-2.261314 21.32896,-6.843898 93.73658,-21.406554 145.07633,72.947396 l 16.0655,11.14425 c 0,0 123.28525,-78.909332 167.68233,-41.095083 4.12398,3.520705 7.20373,8.6642048 9.40506,15.1271025 C 522.02963,60.286639 459.80669,248.3172 459.80669,248.3172 c 0,0 5.42219,72.8486 31.01269,97.15852"
         style="fill:#ffffff;fill-opacity:1;fill-rule:nonzero;stroke:none;stroke-width:0.0352777" />
      <path
         id="path26"
         d="M 111.67501,-15.422981 C 95.288492,-11.221398 80.00264,-4.9384432 67.059224,1.5032877 42.809262,13.529473 26.743762,26.031935 26.743762,26.031935 c 0,0 23.389166,-115.425367 51.879499,-119.803337 6.240648,-0.963083 11.765148,6.06072 16.425333,16.245422 10.523356,22.986999 16.626416,62.102999 16.626416,62.102999"
         style="fill:#ff8a8e;fill-opacity:1;fill-rule:nonzero;stroke:none;stroke-width:0.0352777" />
      <path
         id="path27"
         d="M 430.57553,156.98304 C 422.67332,131.71356 411.85009,111.2066 401.24559,95.278684 382.33669,67.007056 364.09103,53.241685 364.09103,53.241685 c 0,0 71.06708,-50.0379996 88.61425,-35.792833 0.93839,0.779621 1.76035,1.760352 2.45885,2.963333 14.54856,24.909621 -24.5886,136.570855 -24.5886,136.570855"
         style="fill:#ff8a8e;fill-opacity:1;fill-rule:nonzero;stroke:none;stroke-width:0.0352777" />
      <path
         id="path28"
         d="m 79.321761,-123.66932 c -2.956269,0 -5.61975,0.46214 -8.022166,1.11125 -48.880871,13.17272 -90.953166,156.23821 -103.039332,210.248504 -0.215186,0.963084 -0.60325,1.876769 -1.150038,2.69875 -2.06375,3.086788 -4.219231,6.787436 -6.716898,11.070166 -14.537981,24.93079 -36.50898,62.611 -92.593237,72.10425 -4.24003,0.71967 -7.47218,4.33917 -7.86093,8.80885 -3.64845,41.9735 23.37998,224.70885 216.338147,285.51717 44.330033,13.97 85.679123,19.75201 123.736783,19.75201 160.89842,0.007 263.18633,-103.33918 285.58067,-128.36876 2.30362,-2.5753 1.19237,-6.24065 -0.81492,-8.55488 -34.05365,-39.26062 -33.04117,-100.02308 -32.98121,-102.59129 0.0177,-0.79023 0.15523,-1.57692 0.40216,-2.32833 28.575,-86.36707 62.9779,-232.695749 33.6409,-257.686518 -32.68133,-27.84123 -125.25375,20.6939356 -158.16437,41.744185 -2.71991,1.739186 -6.21948,1.675686 -8.87238,-0.165814 L 302.73241,18.549519 c -1.02659,-0.712629 -1.87325,-1.654546 -2.46947,-2.751667 -56.36328,-103.586144 -137.48453,-68.749333 -140.91001,-67.214749 -3.75002,1.679204 -8.1774,0.257519 -10.22702,-3.302 C 116.0812,-112.14054 94.078447,-123.66932 79.321761,-123.66932 M 201.12182,503.93997 c -42.38273,0 -85.67208,-6.92502 -129.652892,-20.78567 C -35.366275,449.48872 -90.914672,380.05147 -118.7005,327.73099 -152.72909,263.65245 -157.98303,203.72255 -156.0064,180.98604 l 7.97313,0.69143 -7.97313,-0.69143 c 1.01883,-11.72634 9.70986,-21.26899 21.13457,-23.20219 48.70201,-8.24796 67.621491,-40.69646 81.43626,-64.388999 2.226045,-3.813545 4.339166,-7.440083 6.409981,-10.639795 2.00025,-8.614834 12.936352,-54.313666 30.243647,-101.197832 26.3701209,-71.441016 54.602935,-111.671794 83.915249,-119.570484 30.423537,-8.19856 59.072623,13.25739 92.452453,69.47253 9.4615,-3.055065 27.89767,-7.4295 50.25673,-4.688417 29.15002,3.570102 70.65433,20.330583 103.55792,79.699537 l 10.20937,7.076731 c 9.98363,-6.067769 35.06258,-20.6657309 63.89158,-32.557852 51.26567,-21.141981 87.84167,-22.845897 108.71906,-5.062379 21.11727,17.9881478 22.31319,68.724647 3.66184,155.10581 -12.22375,56.59612 -29.26998,109.90085 -32.08515,118.57212 0.0423,8.10332 1.44992,58.77632 29.07593,90.62508 7.76817,8.95705 8.04334,21.45597 0.64913,29.71449 -17.27554,19.31106 -65.56023,67.79683 -140.58548,100.83799 -50.165,22.098 -102.2632,33.15407 -155.81487,33.15759"
         style="fill:#000072;fill-opacity:1;fill-rule:nonzero;stroke:none;stroke-width:0.0352777" />
      <path
         id="path29"
         d="M 79.646326,-85.833902 C 67.535474,-83.544375 50.115307,-40.149193 38.822891,4.7770567 52.690576,-2.6912312 74.527511,-12.540795 102.05124,-18.668545 100.80945,-25.865212 98.625761,-37.362231 95.637742,-48.989795 87.386261,-81.071402 80.560011,-85.389402 79.646326,-85.833902 m -52.8955,115.27367 c -1.513416,0 -3.030352,-0.426878 -4.360333,-1.291166 -2.769314,-1.802712 -4.152185,-5.122333 -3.471333,-8.357314 0.243416,-1.150065 6.046602,-28.4797501 15.490481,-56.843083 18.245666,-54.814607 33.277518,-63.140165 42.996537,-64.635945 2.945712,-0.45155 7.46125,-0.25047 12.248435,3.294948 18.302127,13.550194 27.742467,73.074394 29.446377,84.871266 0.61735,4.2403972 -2.21898,8.2126661 -6.43115,9.0099615 C 64.057076,4.6818067 31.763807,27.693518 31.442762,27.926352 c -1.397,1.008935 -3.044455,1.513416 -4.691936,1.513416"
         style="fill:#000072;fill-opacity:1;fill-rule:nonzero;stroke:none;stroke-width:0.0352777" />
      <path
         id="path30"
         d="m 377.22849,54.056601 c 12.35779,11.627538 35.8422,37.4015 52.94135,78.418959 3.53835,-11.35944 7.83167,-25.9715 11.54642,-40.925754 14.84135,-59.824038 6.30766,-67.585166 5.9337,-67.888537 -0.067,-0.05646 -7.20725,-5.309315 -41.92762,13.334999 -11.05606,5.93725 -21.5265,12.505955 -28.49385,17.060333 m 53.34704,110.938019 c -0.0459,0 -0.0882,0 -0.13759,0 -3.44662,-0.06 -6.46993,-2.32482 -7.50004,-5.61623 -20.81389,-66.597372 -63.24954,-99.423353 -63.67287,-99.747917 -2.03552,-1.545167 -3.21379,-3.96875 -3.16794,-6.519334 0.0459,-2.554102 1.30175,-4.935352 3.39019,-6.406435 0.74083,-0.522102 18.39031,-12.911667 38.5445,-23.745481 30.43766,-16.365352 49.41358,-20.0871663 59.71468,-11.719269 7.90575,6.424084 14.98955,21.805186 -0.5221,84.264499 -8.13152,32.751897 -18.9865,63.824567 -19.09585,64.134997 -1.12536,3.21027 -4.15925,5.35517 -7.55298,5.35517"
         style="fill:#000072;fill-opacity:1;fill-rule:nonzero;stroke:none;stroke-width:0.0352777" />
      <path
         id="path31"
         d="m 159.54343,-51.505109 -0.71261,0.391583 -0.92075,0.550333 c -0.62441,0.381 -1.24883,0.807879 -1.86266,1.23825 -1.23121,0.874898 -2.42007,1.823879 -3.53838,2.832815 -2.25071,2.010833 -4.21569,4.265083 -5.80671,6.674564 -3.20675,4.822454 -4.77662,10.294038 -4.64962,16.072538 0.12348,5.901981 1.83798,11.038416 5.30579,14.8202116 1.71802,1.9120379 3.89467,3.5277689 6.37469,4.7871855 1.23825,0.6279357 2.54706,1.1712311 3.88408,1.6086667 0.66675,0.218731 1.34056,0.4056856 1.99319,0.5644356 0.62089,0.155231 1.37231,0.282231 1.62983,0.3104621 h 0.003 l 7.18608,7.3977499 c -0.0106,-0.1905 0.0177,0.028205 0.0317,0.088186 l 0.0741,0.3457311 0.18695,0.7725833 c 0.14113,0.5362046 0.3175,1.0900833 0.51155,1.6368712 0.40216,1.0936287 0.86076,2.180166 1.40758,3.213814 1.11125,2.060231 2.48002,3.944064 4.13454,5.55625 3.29141,3.224398 7.66233,5.531564 12.75998,6.7945 5.1435,1.351147 10.56216,1.735666 15.72683,1.019519 5.17173,-0.663205 10.19527,-2.427103 14.39333,-5.231686 4.23334,-2.7305 7.64117,-6.529916 9.29569,-10.7068137 0.80433,-2.0849166 1.26296,-4.2156855 1.23473,-6.3746855 -0.067,-1.0724356 -0.13406,-2.16606436 -0.43744,-3.24201893 -0.23637,-1.08656437 -0.63148,-2.29658327 -1.06891,-3.31964767 -1.79565,-4.1663143 -4.93538,-6.9779362 -9.64848,-7.8387312 -4.61434,-0.832538 -10.29407,0.465667 -14.20636,3.8276479 l -0.18346,0.1552311 c -1.37935,1.1853333 -3.46075,1.0301022 -4.6496,-0.3527955 -0.96308,-1.1218333 -1.03717,-2.7057885 -0.29281,-3.8946665 2.07788,-3.326686 5.11529,-5.916084 8.54781,-7.701122 3.43958,-1.799166 7.33777,-2.822231 11.42648,-2.861045 4.08162,-0.08112 8.37142,1.026583 12.1285,3.2385 3.78529,2.194295 6.76275,5.573898 8.83002,9.1334169 1.03717,1.8168144 1.89794,3.5736477 2.54352,5.5668333 0.70556,1.9720454 1.09715,4.0710643 1.36879,6.1806666 0.42334,4.2298143 -0.0318,8.5795642 -1.37583,12.5271472 -2.67758,7.955148 -8.0645,14.298083 -14.31925,18.8595 -6.31473,4.564935 -13.6384,7.351897 -21.12433,8.583083 -7.51771,1.199436 -15.14475,0.73025 -22.4155,-1.086564 -7.29546,-1.848538 -14.81667,-5.499788 -20.52108,-11.472334 -2.87163,-2.928038 -5.22113,-6.367621 -6.96032,-10.043583 -0.87135,-1.837954 -1.60515,-3.735916 -2.159,-5.700871 -0.28223,-0.980731 -0.52565,-1.975564 -0.72318,-3.005667 -0.10232,-0.5150636 -0.1905,-1.0371659 -0.27165,-1.5839803 l -0.10935,-0.8431477 -0.10232,-1.1077046 7.18608,7.3977496 h -0.003 c -1.54871,-0.176398 -2.58587,-0.398648 -3.73591,-0.66675 -1.1148,-0.268129 -2.1943,-0.5715 -3.25615,-0.917231 -2.12373,-0.6985 -4.18393,-1.548686 -6.19125,-2.568231 -4.0005,-2.0319997 -7.7964,-4.7907042 -10.95727,-8.2867496 -3.15031,-3.4854356 -5.64798,-7.6623332 -7.15081,-12.0402884 -1.5734,-4.3815 -2.18369,-8.865314 -2.30365,-13.211545 -0.10583,-4.385019 0.47625,-8.872352 1.69333,-13.17625 1.26297,-4.293288 3.175,-8.382 5.59859,-12.036769 2.42006,-3.665352 5.29521,-6.925019 8.46666,-9.768416 1.5875,-1.425231 3.24557,-2.748148 4.98123,-3.982852 0.8749,-0.613834 1.75332,-1.213565 2.68111,-1.781546 l 1.42171,-0.850185 c 0.53268,-0.299853 0.89252,-0.508 1.68979,-0.906648 3.95464,-1.964955 8.75241,-0.352769 10.71739,3.601879 1.91559,3.848787 0.43744,8.501935 -3.29141,10.558621 l -0.46567,0.254"
         style="fill:#000072;fill-opacity:1;fill-rule:nonzero;stroke:none;stroke-width:0.0352777" />
      <path
         id="path32"
         d="m 152.47376,7.0136854 c -0.0494,-1.5910454 0.014,-2.5823333 0.0882,-3.7994166 0.0776,-1.1571288 0.19404,-2.29658334 0.34573,-3.41841666 0.28223,-2.25424994 0.71966,-4.46616664 1.23825,-6.65339764 1.06891,-4.3709165 2.64231,-8.6218975 4.68841,-12.6435645 1.98615,-4.049871 4.69194,-7.757583 7.6694,-11.108954 l 2.3495,-2.420064 c 0.76904,-0.814917 1.68979,-1.471084 2.52587,-2.208398 1.66513,-1.499288 3.53484,-2.695205 5.37988,-3.90525 0.9031,-0.642038 1.86267,-1.160621 2.83633,-1.651 l 2.88925,-1.502833 3.00213,-1.248834 c 0.99483,-0.430371 2.00025,-0.814916 3.04448,-1.11125 4.07106,-1.432269 8.3326,-2.141352 12.53418,-2.564685 4.21923,-0.405686 8.43846,-0.261065 12.56596,0.261064 4.15925,0.543269 8.11388,1.418167 12.17436,2.942167 1.10418,0.41275 1.6651,1.643935 1.25235,2.751666 -0.38452,1.016 -1.45696,1.573372 -2.4906,1.329955 l -0.16934,-0.03879 c -3.50308,-0.821981 -7.42243,-1.210045 -11.15483,-1.195917 -3.76415,0.0071 -7.51065,0.363353 -11.11602,1.188853 -3.59129,0.843147 -7.11554,1.897935 -10.34698,3.541897 -0.83608,0.34925 -1.62983,0.779621 -2.40594,1.245288 l -2.33539,1.340565 -2.20486,1.548685 c -0.74437,0.497417 -1.47108,1.012481 -2.11314,1.612212 -5.47159,4.445 -9.55675,10.135288 -11.86392,16.580538 -1.16417,3.20675 -1.9685,6.5581475 -2.37773,9.9659808 -0.18344,1.7039167 -0.31396,3.41489768 -0.3175,5.11174995 -0.014,0.85018565 0.003,1.68626895 0.0494,2.50824995 0.0388,0.762 0.127,1.7533144 0.20814,2.1343144 0.90663,4.3532689 -1.88383,8.6183519 -6.23712,9.5285189 -4.35327,0.906648 -8.61836,-1.883833 -9.52852,-6.2371023 -0.0917,-0.4515644 -0.14817,-0.9031288 -0.16582,-1.3476287 l -0.014,-0.5362046"
         style="fill:#000072;fill-opacity:1;fill-rule:nonzero;stroke:none;stroke-width:0.0352777" />
      <path
         id="path33"
         d="m 287.15019,264.43914 c -1.79916,36.83352 -26.289,65.56726 -54.7017,64.17733 -28.40921,-1.38642 -49.98508,-32.3709 -48.18592,-69.2009 1.79917,-36.83352 26.289,-65.56727 54.70171,-64.18085 28.41273,1.38994 49.98508,32.3709 48.18591,69.20442"
         style="fill:#00bdff;fill-opacity:1;fill-rule:nonzero;stroke:none;stroke-width:0.0352777" />
      <path
         id="path34"
         d="m 236.99932,203.18987 c -10.65389,0 -20.99733,5.28108 -29.2735,14.99304 -9.19339,10.78441 -14.68614,25.56581 -15.46931,41.62073 -0.78317,16.05843 3.24202,31.3055 11.33827,42.92952 7.65175,10.98904 18.03754,17.34256 29.24529,17.89289 11.18659,0.53623 22.1615,-4.76602 30.85042,-14.95777 9.18985,-10.78089 14.6826,-25.56229 15.46577,-41.62073 0.78668,-16.05491 -3.24202,-31.30198 -11.33827,-42.92952 -7.65175,-10.98904 -18.03755,-17.33904 -29.2453,-17.88937 -0.52562,-0.0246 -1.04775,-0.0388 -1.57337,-0.0388 m -2.54,133.48052 c -0.79729,0 -1.59808,-0.0177 -2.39889,-0.06 -16.27717,-0.79375 -31.0515,-9.57791 -41.59957,-24.7297 -10.10708,-14.51329 -15.14827,-33.28458 -14.19225,-52.85671 0.95605,-19.5721 7.79992,-37.76133 19.2758,-51.22333 11.97327,-14.05112 27.52725,-21.36421 43.81145,-20.55987 16.27365,0.79726 31.04798,9.57791 41.59957,24.7297 10.10708,14.51681 15.14475,33.28813 14.18873,52.86023 -0.95605,19.5721 -7.79992,37.76133 -19.27225,51.22333 -11.38767,13.35617 -26.01384,20.61634 -41.41259,20.61634"
         style="fill:#000072;fill-opacity:1;fill-rule:nonzero;stroke:none;stroke-width:0.0352777" />
      <path
         id="path35"
         d="m 275.56851,273.68191 c -1.53458,31.42898 -18.34092,56.14458 -37.5426,55.20973 -19.19817,-0.9384 -33.51742,-27.178 -31.98284,-58.60344 1.53811,-31.42898 18.34444,-56.14458 37.54261,-55.20973 19.19816,0.9384 33.51741,27.178 31.98283,58.60344"
         style="fill:#000072;fill-opacity:1;fill-rule:nonzero;stroke:none;stroke-width:0.0352777" />
      <path
         id="path36"
         d="m 264.98869,259.68722 c -0.43743,8.98173 -5.24226,16.04433 -10.7315,15.77623 -5.48568,-0.26458 -9.57791,-7.76465 -9.14045,-16.7499 0.44095,-8.98173 5.24227,-16.04433 10.7315,-15.77975 5.48569,0.26811 9.57792,7.76817 9.14045,16.75342"
         style="fill:#ffffff;fill-opacity:1;fill-rule:nonzero;stroke:none;stroke-width:0.0352777" />
      <path
         id="path37"
         d="m 223.36445,303.56572 c -3.84879,0 -7.79286,-6.63575 -8.95702,-15.24706 -1.21002,-8.93938 1.03716,-16.62642 5.02356,-17.16617 0.14462,-0.0212 0.29633,-0.0282 0.4445,-0.0282 3.84527,0 7.79285,6.63575 8.95702,15.24352 1.21002,8.94292 -1.04069,16.62994 -5.02356,17.16969 -0.14817,0.0177 -0.29634,0.0282 -0.4445,0.0282"
         style="fill:#5959a3;fill-opacity:1;fill-rule:nonzero;stroke:none;stroke-width:0.0352777" />
      <path
         id="path38"
         d="m 269.31376,199.33399 c 0.0106,0.0388 0.17992,0.16581 0.34573,0.29281 0.1552,0.11994 0.3175,0.24342 0.508,0.3669 0.37042,0.25046 0.71612,0.51152 1.11829,0.75142 0.77258,0.50093 1.58046,0.97367 2.40948,1.43227 1.651,0.92781 3.39018,1.7286 5.16467,2.48356 3.55951,1.4605 7.31308,2.48002 11.15835,3.00212 1.93323,0.33867 3.86646,0.32809 5.842,0.4304 1.92971,-0.15168 3.94758,-0.10231 5.88433,-0.5221 3.97582,-0.48683 7.7823,-1.93675 11.59933,-3.54896 l 0.21522,-0.0917 c 1.26293,-0.53271 2.72343,0.06 3.25612,1.32292 0.46214,1.09712 0.0811,2.33892 -0.85371,2.9986 -3.71475,2.62819 -7.68704,5.1929 -12.16379,6.76982 -2.18017,0.97012 -4.5085,1.44991 -6.82625,2.11666 -2.34596,0.40217 -4.73075,0.9031 -7.13669,1.01246 -4.81541,0.381 -9.7014,0.127 -14.49565,-0.71612 -2.39183,-0.45157 -4.7766,-0.98074 -7.13668,-1.7004 -1.18182,-0.35277 -2.36008,-0.73732 -3.5419,-1.17827 -0.58912,-0.20108 -1.18885,-0.46567 -1.78858,-0.70205 -0.29279,-0.11641 -0.60677,-0.254 -0.92427,-0.40216 -0.30692,-0.13759 -0.61383,-0.27162 -1.06185,-0.51152 l -4.97772,-2.66348 c -4.56141,-2.44475 -6.27943,-8.12446 -3.8382,-12.68587 2.44475,-4.56497 8.12445,-6.28299 12.68587,-3.84175 2.286,1.22412 3.86292,3.28435 4.5579,5.58445"
         style="fill:#000072;fill-opacity:1;fill-rule:nonzero;stroke:none;stroke-width:0.0352777" />
      <path
         id="path39"
         d="m 271.16232,200.91091 c 0.40921,0.65264 1.143,1.5875 1.77094,2.39889 0.68085,0.82902 1.3476,1.67569 2.07433,2.48357 0.70202,0.82902 1.43227,1.63335 2.19075,2.42004 0.73732,0.81139 1.50635,1.58046 2.29307,2.33891 3.12912,3.04448 6.49816,5.86672 10.1247,8.26913 3.64421,2.35302 7.5283,4.28271 11.65225,5.62679 4.14163,1.22063 8.48432,1.65454 12.9258,1.3335 l 0.16227,-0.0106 c 1.18181,-0.0847 2.20839,0.80433 2.29658,1.98966 0.0706,1.02659 -0.59267,1.93675 -1.54165,2.21546 -4.826,1.40759 -9.9977,1.99319 -15.15885,1.56986 -5.11175,-0.53269 -10.13883,-1.83092 -14.92602,-3.67242 -4.76605,-1.88735 -9.27806,-4.28977 -13.58548,-7.01675 -1.0795,-0.67733 -2.14842,-1.37583 -3.18207,-2.11667 -1.05478,-0.71966 -2.09195,-1.47108 -3.10443,-2.25073 -1.03365,-0.75845 -2.02848,-1.58395 -3.03742,-2.39535 -1.02306,-0.86783 -1.93323,-1.61925 -3.07975,-2.73402 l -0.33866,-0.32456 c -3.19969,-3.11502 -3.27025,-8.23032 -0.15875,-11.43 3.1115,-3.20323 8.22676,-3.27377 11.43,-0.16227 0.45156,0.44095 0.86431,0.95954 1.19239,1.46754"
         style="fill:#000072;fill-opacity:1;fill-rule:nonzero;stroke:none;stroke-width:0.0352777" />
      <path
         id="path40"
         d="M 49.878928,204.8832 C 38.988678,229.44357 17.702076,243.82987 2.3315577,237.0142 -13.038988,230.20205 -16.669071,204.76679 -5.7788209,180.20639 5.1114289,155.64602 26.398057,141.2562 41.765057,148.07187 c 15.370519,6.81567 19.000602,32.25093 8.113871,56.81133"
         style="fill:#00bdff;fill-opacity:1;fill-rule:nonzero;stroke:none;stroke-width:0.0352777" />
      <path
         id="path41"
         d="m 33.742891,154.43952 c -9.955398,0 -23.9359811,10.35402 -32.2050833,29.00891 -4.600231,10.37164 -6.4911287,21.55471 -5.1858333,30.68461 0.6526213,4.57551 2.71991668,12.68235 9.2251212,15.56453 9.7013974,4.30742 27.2767954,-6.16302 36.9852304,-28.05993 4.596686,-10.37167 6.487583,-21.55471 5.185833,-30.6846 -0.656166,-4.57552 -2.723435,-12.67884 -9.225147,-15.56457 -1.435788,-0.63852 -3.048,-0.94895 -4.780121,-0.94895 m -23.216314,92.28312 c -3.9334814,0 -7.7858147,-0.77259 -11.43706467,-2.39184 C -10.95759,239.87874 -17.558071,229.95512 -19.494821,216.39787 c -1.739185,-12.19907 0.532712,-26.20433 6.399398,-39.43702 12.8763974,-29.04067 38.403397,-44.94038 58.106018,-36.20558 10.047129,4.45558 16.644064,14.37568 18.580814,27.93645 1.742731,12.19555 -0.529166,26.20082 -6.395852,39.4335 -10.491629,23.65727 -29.375814,38.59742 -46.66898,38.59742"
         style="fill:#000072;fill-opacity:1;fill-rule:nonzero;stroke:none;stroke-width:0.0352777" />
      <path
         id="path42"
         d="M 48.34789,208.18166 C 39.87416,227.29516 24.38016,238.96505 13.74391,234.24841 3.10766,229.53178 1.3543456,210.2172 9.8280766,191.1037 18.305326,171.9902 33.795807,160.3203 44.432057,165.03695 c 10.63625,4.7131 12.389538,24.03121 3.915833,43.14471"
         style="fill:#000072;fill-opacity:1;fill-rule:nonzero;stroke:none;stroke-width:0.0352777" />
      <path
         id="path43"
         d="m 42.428262,195.28412 c -2.716371,6.12775 -7.687019,9.87425 -11.098371,8.36083 -3.411379,-1.51341 -3.975815,-7.70821 -1.255898,-13.83948 2.716398,-6.13127 7.687019,-9.87425 11.098398,-8.36083 3.411352,1.5099 3.975787,7.70818 1.255871,13.83948"
         style="fill:#ffffff;fill-opacity:1;fill-rule:nonzero;stroke:none;stroke-width:0.0352777" />
      <path
         id="path44"
         d="m 10.554808,216.82824 c -0.07408,0 -0.148167,-0.007 -0.218731,-0.0212 -1.7109815,-0.3457 -2.2683527,-4.7131 -1.2488338,-9.75077 0.9771858,-4.82951 3.0479998,-8.5231 4.7236858,-8.5231 0.07408,0 0.144648,0.007 0.218731,0.0212 1.707435,0.3457 2.268352,4.7131 1.245314,9.75429 -0.977212,4.826 -3.044481,8.51958 -4.720166,8.51958"
         style="fill:#5959a3;fill-opacity:1;fill-rule:nonzero;stroke:none;stroke-width:0.0352777" />
      <path
         id="path45"
         d="m -5.1402755,119.40868 c 0.9031022,3.69711 2.6176022,7.53886 4.76601886,10.64329 2.17664764,3.15384 4.93535224,5.65857 8.01158324,7.27075 0.7055644,0.4939 1.5698523,0.74083 2.3565643,1.06892 l 1.1817881,0.47979 c 0.388064,0.16579 0.846666,0.20461 1.259416,0.3175 0.850213,0.17637 1.658065,0.40569 2.497667,0.56092 l 2.614083,0.19754 c 0.433917,0.0282 0.843148,0.10231 1.287648,0.0917 l 1.351148,-0.0847 2.652871,-0.14465 c 1.806231,-0.26103 3.626564,-0.65968 5.3975,-0.94543 4.321545,-0.70202 8.396129,2.2366 9.098148,6.56167 0.585602,3.60185 -1.358186,7.03085 -4.522603,8.48076 l -0.814916,0.37042 -0.0071,0.003 c -0.917231,0.28927 -1.506352,0.42685 -2.233083,0.61029 l -2.06375,0.47625 c -1.36525,0.28929 -2.723436,0.54329 -4.081648,0.76906 -2.719917,0.44802 -5.446871,0.762 -8.184436,0.9525 -5.4751018,0.37748 -11.0207684,0.21519 -16.5064804,-0.6491 -5.4751022,-0.90313 -10.9078706,-2.55413 -15.8291206,-5.24581 -4.935379,-2.65642 -9.221629,-6.39586 -12.520084,-10.70682 -0.917231,-1.19943 -0.687916,-2.91393 0.508,-3.83116 1.068917,-0.81492 2.543519,-0.72319 3.503084,0.15171 l 0.05292,0.0494 c 3.467788,3.16442 7.457705,5.53508 11.754538,6.95325 4.2933144,1.44288 8.8441477,1.98967 13.40204536,1.93675 4.57199994,-0.0917 9.15810214,-0.75846 13.65249964,-1.87677 2.243667,-0.56444 4.469686,-1.22415 6.642788,-1.99319 1.086564,-0.381 2.162545,-0.78671 3.213814,-1.21356 l 1.545167,-0.65969 c 0.465667,-0.20814 1.072436,-0.47979 1.3335,-0.63854 v 0 l 3.764148,15.41288 c -2.504731,-0.11642 -4.960065,-0.16934 -7.425981,-0.40217 l -3.742981,-0.63854 -1.852084,-0.33867 c -0.613833,-0.13404 -1.23825,-0.36687 -1.852083,-0.54679 l -3.65125,-1.18533 c -1.188852,-0.51155 -2.3565378,-1.12184 -3.5101211,-1.6863 -0.5715,-0.30691 -1.1641666,-0.5362 -1.7003977,-0.91016 l -1.6086666,-1.10771 c -1.0548144,-0.75142 -2.1413523,-1.42875 -3.044481,-2.36715 -3.8770189,-3.38314 -6.7204166,-7.66233 -8.4842878,-12.10027 -0.3951288,-1.13241 -0.8255,-2.24014 -1.1641667,-3.36904 -0.2787121,-1.143 -0.6491287,-2.25425 -0.8290454,-3.40783 -0.4832879,-2.30363 -0.7126023,-4.50496 -0.7408333,-6.98146 -0.017727,-1.25238 0.98425,-2.27896 2.2366287,-2.29306 1.0759546,-0.014 1.9861212,0.72318 2.2295379,1.72508 l 0.056462,0.2399"
         style="fill:#000072;fill-opacity:1;fill-rule:nonzero;stroke:none;stroke-width:0.0352777" />
      <path
         id="path46"
         d="m 92.684992,266.83449 c -2.557647,0.91723 -5.386916,-0.21871 -6.565212,-2.667 -3.118538,-6.48404 -8.314954,-18.60196 -5.580935,-22.33083 3.795897,-5.17877 32.907105,3.86998 34.162995,10.85146 0.9384,5.20345 -14.23458,11.35237 -22.016848,14.14637"
         style="fill:#000072;fill-opacity:1;fill-rule:nonzero;stroke:none;stroke-width:0.0352777" />
      <path
         id="path47"
         d="m 58.003409,250.6173 c 0.01773,4.75192 0.451565,9.66965 1.887353,13.67015 0.744378,1.97908 1.643962,3.76767 2.808128,5.07294 1.227667,1.24531 2.480019,2.20839 4.035769,2.79048 1.527519,0.4586 2.921,0.73729 4.462648,0.51152 1.545166,-0.25048 3.213788,-0.79375 4.931833,-1.651 1.721538,-0.8255 3.464269,-2.01436 5.171705,-3.2879 0.864314,-0.63146 1.7145,-1.31233 2.543545,-2.02142 0.804333,-0.6632 1.73564,-1.49225 2.360057,-2.03904 l 0.03881,-0.0317 c 2.427102,-2.11314 6.106583,-1.85562 8.216186,0.5715 0.762,0.87488 1.213564,1.905 1.368795,2.97392 0.04585,0.32102 0.134038,1.08302 0.239871,1.6651 0.0988,0.63148 0.208148,1.26294 0.356315,1.89442 0.268102,1.26294 0.663231,2.4906 1.093602,3.683 0.860795,2.38831 2.053167,4.55083 3.513674,6.4135 0.69498,0.97367 1.58398,1.73919 2.40241,2.59644 0.95957,0.68439 1.82034,1.50283 2.921,2.03554 2.01084,1.34054 4.49088,2.06021 7.00617,2.76929 2.58588,0.53975 5.23523,0.91017 7.78581,0.7479 2.55765,-0.14111 5.05532,-0.6985 7.44361,-1.68982 2.37421,-1.01245 4.63198,-2.47295 6.64281,-4.32152 2.06023,-1.80268 3.79942,-4.08164 5.15408,-6.45231 l 0.0812,-0.1411 c 0.70202,-1.22415 2.26129,-1.64748 3.48544,-0.94898 1.02306,0.58208 1.48518,1.76741 1.2065,2.85046 -0.88548,3.46075 -2.52942,6.53343 -4.61082,9.38741 -2.11666,2.81517 -4.7907,5.334 -7.93395,7.22488 -3.12563,1.92971 -6.69221,3.175 -10.31875,3.80296 -3.65125,0.67027 -7.27782,0.44802 -10.84088,0.0423 -3.54894,-0.6209 -7.18254,-1.53106 -10.56569,-3.37963 -1.739185,-0.79727 -3.266731,-2.02141 -4.840102,-3.14677 -1.42875,-1.29823 -2.913962,-2.58585 -4.064,-4.1416 -2.437712,-2.99508 -4.212166,-6.42408 -5.362231,-9.93775 -0.53975,-1.77096 -0.977185,-3.55248 -1.252352,-5.35871 -0.151712,-0.89958 -0.257545,-1.81327 -0.338667,-2.73402 -0.05646,-0.9666 -0.09173,-1.76035 -0.05998,-2.99508 l 9.62025,3.51014 c -0.98425,1.36877 -1.802685,2.32834 -2.797519,3.39725 -0.970147,1.02659 -1.982629,2.01436 -3.076231,2.93863 -2.19075,1.84856 -4.579038,3.54541 -7.380102,4.85775 -2.790481,1.29471 -5.954898,2.26837 -9.401519,2.42712 -3.478398,0.10584 -7.076731,-0.80081 -10.047128,-2.49414 -2.924519,-1.67923 -5.432769,-4.18394 -7.08025,-7.02027 -1.651,-2.85398 -2.398872,-5.88082 -2.712853,-8.76655 -0.345731,-2.89629 -0.109352,-5.68677 0.331603,-8.36083 0.486833,-2.68817 1.167712,-5.21052 2.278962,-7.73994 0.381,-0.87135 1.393454,-1.26648 2.264833,-0.88548 0.642038,0.28223 1.026583,0.90665 1.030102,1.56634 v 0.14464"
         style="fill:#000072;fill-opacity:1;fill-rule:nonzero;stroke:none;stroke-width:0.0352777" />
      <path
         id="path48"
         d="m 63.474993,306.52199 c 2.659935,1.50638 5.351647,3.23498 7.937499,4.52967 2.614084,1.3335 5.182315,2.4765 7.881065,3.29141 2.691685,0.78317 5.471557,1.5099 8.480769,1.72863 1.499287,0.29633 3.040935,0.1905 4.653121,0.38804 1.615731,0.0988 3.249083,-0.007 5.037666,0.20815 l 0.338667,0.0423 c 1.167712,0.13758 1.996731,1.19592 1.855629,2.3636 -0.07408,0.61383 -0.409231,1.13948 -0.874898,1.47463 -1.531064,1.0936 -3.167936,2.09195 -4.917731,2.88219 -1.788583,0.66323 -3.605371,1.43581 -5.559769,1.70391 -3.855852,0.85019 -7.997454,0.59267 -11.934454,-0.34573 -3.954648,-0.94895 -7.665879,-2.85395 -10.703296,-5.43277 -0.769037,-0.63148 -1.460499,-1.35466 -2.169583,-2.03906 -0.656166,-0.74787 -1.308788,-1.48519 -1.887352,-2.28246 -1.153583,-1.651 -2.116667,-3.23146 -2.829269,-5.35871 -0.508,-1.52045 0.310436,-3.16087 1.827371,-3.66887 0.807879,-0.27165 1.651,-0.16581 2.338917,0.21871 l 0.525648,0.29633"
         style="fill:#000072;fill-opacity:1;fill-rule:nonzero;stroke:none;stroke-width:0.0352777" />
      <path
         id="path49"
         d="m -39.553756,93.948703 c -1.718019,0 -3.453686,-0.550333 -4.914186,-1.689814 -3.485462,-2.716371 -4.109878,-7.747 -1.393481,-11.232436 C 32.19066,-19.134212 130.94374,-22.669045 135.10651,-22.77136 c 4.48733,-0.151685 8.08919,3.386667 8.19856,7.803462 0.10584,4.416769 -3.38666,8.0856669 -7.80346,8.1950192 -1.42168,0.045852 -95.729765,3.9511022 -168.737116,97.6383128 -1.576917,2.024936 -3.937,3.083269 -6.31825,3.083269"
         style="fill:#000072;fill-opacity:1;fill-rule:nonzero;stroke:none;stroke-width:0.0352777" />
      <path
         id="path50"
         d="m 200.01409,487.64163 v 0 c -38.05766,0 -79.40675,-5.78201 -123.736783,-19.75201 C -48.902358,428.44199 -104.24578,337.68639 -126.68634,267.32839 c 83.82352,122.3151 206.279749,156.20999 309.3367,156.20999 37.0699,0 71.61742,-4.3815 100.97207,-10.60801 59.63356,-12.65063 111.0756,-40.8164 136.40506,-56.45505 8.88645,-5.48568 12.2061,-16.64052 8.08918,-26.2396 -20.3341,-47.38865 -4.66373,-124.0931 -4.66373,-124.0931 43.57159,-44.47469 63.92685,-123.070064 73.3919,-183.13048 2.62818,54.976897 -22.72242,156.53104 -44.64405,222.78623 -0.24693,0.75141 -0.38451,1.5381 -0.40216,2.32833 -0.06,2.56821 -1.07244,63.33067 32.98121,102.59129 2.00729,2.31423 3.11854,5.97958 0.81492,8.55488 -22.39434,25.02958 -124.68225,128.37583 -285.58067,128.36876"
         style="fill:#cccce3;fill-opacity:1;fill-rule:nonzero;stroke:none;stroke-width:0.0352777" />
      <path
         id="path51"
         d="m 204.17334,494.98999 c -39.45818,0 -82.87456,-5.72559 -130.291412,-19.46627 C -88.163006,428.56547 -134.49895,312.0218 -145.56349,237.07416 c 6.04134,10.64331 12.33842,20.71158 18.87715,30.25423 22.44056,70.358 77.783982,161.1136 202.963647,200.56123 44.330033,13.97 85.679123,19.75201 123.736783,19.75201 v 0 c 160.89842,0.007 263.18633,-103.33918 285.58067,-128.36876 2.30362,-2.5753 1.19237,-6.24065 -0.81492,-8.55488 -34.05365,-39.26062 -33.04117,-100.02308 -32.98121,-102.59129 0.0177,-0.79023 0.15523,-1.57692 0.40216,-2.32833 21.92163,-66.25519 47.27223,-167.809333 44.64405,-222.78623 1.43579,-9.11225 2.62112,-17.7941023 3.59833,-25.8691855 C 522.02963,60.286639 459.80669,248.3172 459.80669,248.3172 c 0,0 5.42219,72.8486 31.01269,97.15852 5.3834,5.10117 5.68325,13.6031 0.74083,19.1276 -31.42895,35.12257 -126.44612,130.38667 -287.38687,130.38667"
         style="fill:#000072;fill-opacity:1;fill-rule:nonzero;stroke:none;stroke-width:0.0352777" />
      <path
         id="path52"
         d="m 198.05618,25.523935 c -3.52425,0 -7.08377,-0.469212 -10.51984,-1.372314 -5.09764,-1.262936 -9.46856,-3.570102 -12.75998,-6.7945 -1.65452,-1.612186 -3.02329,-3.496019 -4.13454,-5.55625 -0.54681,-1.033648 -1.00541,-2.1201857 -1.40758,-3.2138144 C 169.0402,8.0402687 168.86382,7.48639 168.7227,6.9501854 l -0.18696,-0.7725833 -0.0741,-0.3457311 c 0,-0.00344 0,-0.010583 -0.003,-0.014023 -0.003,-0.024606 -0.007,-0.045879 -0.0106,-0.070564 -0.007,-0.035269 -0.014,-0.067019 -0.0177,-0.077602 -0.003,-0.021167 -0.007,-0.042333 -0.0106,-0.0635 -0.0811,-0.381 -0.16933,-1.3723143 -0.20814,-2.1343143 -0.0459,-0.821981 -0.0635,-1.6580644 -0.0494,-2.50824998 0.003,-1.69685227 0.13406,-3.40783332 0.3175,-5.11174992 0.40923,-3.4078333 1.21356,-6.7592308 2.37773,-9.9659808 2.30717,-6.44525 6.39233,-12.135537 11.86392,-16.580537 0.64206,-0.599731 1.36877,-1.114796 2.11314,-1.612213 l 2.20486,-1.548685 0.3175,-0.183436 c -17.94934,20.447 -7.73642,38.251685 9.09108,40.343666 1.36173,0.1693334 2.71285,0.2504546 4.04635,0.2504546 10.922,0 20.7504,-5.3128333 26.57123,-9.2815832 0.27869,0.7725833 0.51859,1.5875 0.6844,2.34246205 0.30337,1.07595457 0.37042,2.16958335 0.43744,3.24201895 0.0282,2.1589999 -0.4304,4.2897689 -1.23473,6.3746855 -1.65452,4.1768981 -5.06236,7.9763151 -9.29569,10.7068151 -4.19806,2.804583 -9.2216,4.568481 -14.39333,5.231685 -1.7145,0.239898 -3.45723,0.352796 -5.207,0.352796 M 153.56736,-4.2222161 c -2.413,-1.2488334 -4.52612,-2.8328144 -6.20887,-4.7025189 -2.01438,-2.194295 -3.43606,-4.847167 -4.30038,-7.84225 -0.0317,-0.130545 -0.067,-0.261064 -0.10935,-0.391583 -0.55033,-2.053167 -0.84667,-4.258046 -0.89606,-6.586379 -0.127,-5.7785 1.44287,-11.250083 4.64962,-16.072538 1.59102,-2.409481 3.556,-4.663731 5.80671,-6.674564 0.15875,-0.141102 0.3175,-0.282231 0.47625,-0.423333 -6.08894,13.726583 -1.41462,22.528397 -1.41462,22.528397 11.38412,-10.978462 22.06625,-15.642166 30.14837,-17.511897 l -2.12371,1.104185 c -0.97366,0.490379 -1.93323,1.008962 -2.83633,1.651 -1.84504,1.210046 -3.71475,2.405962 -5.37988,3.90525 -0.83608,0.737315 -1.75683,1.393481 -2.52587,2.208398 l -2.3495,2.420064 c -2.97746,3.351371 -5.68325,7.059083 -7.6694,11.108955 -2.0461,4.021666 -3.6195,8.272647 -4.68841,12.6435639 -0.20815,0.8748977 -0.40217,1.7497689 -0.57857,2.63525 M 121.67978,-21.483633 c 6.24417,-36.022147 -6.09952,-69.581886 -18.97592,-93.041607 11.50763,8.63953 25.50938,24.676804 42.5803,53.251794 -1.19592,0.910166 -2.35305,1.869731 -3.47488,2.875147 -3.17146,2.843398 -6.0466,6.103065 -8.46667,9.768417 -2.42358,3.654769 -4.33562,7.743481 -5.59858,12.036769 -1.21708,4.303897 -1.79917,8.79123 -1.69333,13.176249 0.0106,0.455084 0.0282,0.906648 0.0529,1.36525 -1.34053,0.151712 -2.8222,0.342212 -4.42383,0.567981"
         style="fill:#cccce3;fill-opacity:1;fill-rule:nonzero;stroke:none;stroke-width:0.0352777" />
      <path
         id="path53"
         d="m 145.28416,-61.273526 c -17.07092,-28.574989 -31.07267,-44.612264 -42.5803,-53.251794 -2.843368,-5.17878 -5.714997,-9.86719 -8.417266,-13.98058 17.674166,7.20725 36.427836,27.29089 57.728566,62.875586 -0.43746,0.229288 -0.73732,0.398622 -1.12184,0.617353 l -1.42171,0.850185 c -0.92779,0.567981 -1.8062,1.167712 -2.6811,1.781546 -0.508,0.359833 -1.01248,0.73025 -1.50635,1.107704"
         style="fill:#000072;fill-opacity:1;fill-rule:nonzero;stroke:none;stroke-width:0.0352777" />
      <path
         id="path54"
         d="m 195.87249,35.119473 c -23.96067,0 -32.58963,-19.452166 -32.91065,-20.189454 3.83469,-1.2065 6.22652,-5.101167 5.49627,-9.1122503 0.003,0.00344 0.003,0.010583 0.003,0.014023 l 0.0741,0.3457311 0.18695,0.7725833 c 0.14113,0.5362046 0.3175,1.0900833 0.51155,1.6368712 0.40216,1.0936288 0.86076,2.1801667 1.40758,3.2138147 1.11125,2.060231 2.48002,3.944064 4.13454,5.556249 3.29141,3.224398 7.66233,5.531565 12.75998,6.7945 3.43606,0.903103 6.99558,1.372315 10.51983,1.372315 1.74977,0 3.4925,-0.112898 5.207,-0.352796 5.17173,-0.663204 10.19527,-2.427102 14.39333,-5.231685 4.23334,-2.7305 7.64117,-6.529917 9.29569,-10.7068143 0.80433,-2.0849167 1.26296,-4.2156856 1.23473,-6.3746856 -0.067,-1.0724356 -0.13406,-2.16606433 -0.43744,-3.2420189 -0.16581,-0.7549621 -0.40571,-1.5698787 -0.68439,-2.3424621 3.47133,-2.3636022 5.51391,-4.2544999 5.51391,-4.2544999 0,0 6.4629,34.0536468 -26.12673,40.9363328 -3.81704,0.807879 -7.34128,1.164167 -10.57978,1.164167 m -43.41638,-29.1394356 -10.38929,-8.8370832 -8.30088,-3.81 c 1.04071,-0.077602 1.63338,-0.1023143 1.73567,-0.1058333 4.41679,-0.1093523 7.90929,-3.7782499 7.80346,-8.1950189 -0.0177,-0.620898 -0.10232,-1.220629 -0.24696,-1.799167 0.86431,2.995084 2.286,5.647955 4.30038,7.8422503 1.68275,1.8697046 3.79587,3.4536856 6.20887,4.7025189 -0.26459,1.3264356 -0.49036,2.663481 -0.65969,4.01814766 -0.15168,1.12183332 -0.2681,2.26128784 -0.34573,3.41841664 -0.0564,0.9313333 -0.10583,1.7286023 -0.10583,2.7657689 M 168.44742,5.747125 c -0.007,-0.024606 -0.0106,-0.052917 -0.0177,-0.077602 0.003,0.010583 0.0106,0.042333 0.0177,0.077602 m -25.49877,-22.905852 c -0.99483,-3.252629 -3.97581,-5.61975 -7.56356,-5.61975 -0.0917,0 -0.18695,0.0034 -0.27869,0.0071 -0.67381,0.01402 -3.84175,0.123481 -9.00289,0.719666 -0.0246,-0.458602 -0.0423,-0.910166 -0.0529,-1.36525 -0.10583,-4.385018 0.47625,-8.872352 1.69333,-13.176249 1.26297,-4.293288 3.175,-8.382 5.59859,-12.036769 2.42006,-3.665352 5.29521,-6.925019 8.46666,-9.768417 1.12184,-1.005416 2.27897,-1.964981 3.47488,-2.875147 0.49387,-0.377455 0.99835,-0.747872 1.50635,-1.107705 0.8749,-0.613833 1.75332,-1.213564 2.68111,-1.781545 l 1.42171,-0.850186 c 0.38452,-0.218731 0.68437,-0.388064 1.12183,-0.617352 1.34409,2.243666 2.69521,4.543769 4.05694,6.910916 0,0 2.20133,-1.001897 6.14185,-2.261314 -4.41677,5.083519 -7.34129,9.81075 -9.22867,14.06525 -0.15875,0.141102 -0.3175,0.282231 -0.47625,0.423333 -2.2507,2.010833 -4.21568,4.265083 -5.8067,6.674564 -3.20675,4.822455 -4.77663,10.294038 -4.64963,16.072538 0.0494,2.328333 0.34573,4.533212 0.89606,6.586379"
         style="fill:#000072;fill-opacity:1;fill-rule:nonzero;stroke:none;stroke-width:0.0352777" />
      <path
         id="path55"
         d="m 162.96184,14.930019 c -0.003,-0.01402 -0.007,-0.02117 -0.007,-0.02117 L 152.45603,5.9800377 c 0,-1.0371667 0.0494,-1.8344356 0.10584,-2.7657689 0.0776,-1.1571288 0.19404,-2.29658334 0.34573,-3.41841666 0.16933,-1.35466664 0.3951,-2.69171204 0.65968,-4.01814764 0.1764,-0.8854811 0.37042,-1.7603523 0.57857,-2.63525 1.06891,-4.3709165 2.64231,-8.6218975 4.68841,-12.6435645 1.98615,-4.049871 4.69194,-7.757583 7.6694,-11.108954 l 2.3495,-2.420064 c 0.76904,-0.814917 1.68979,-1.471084 2.52587,-2.208398 1.66513,-1.499288 3.53484,-2.695205 5.37988,-3.90525 0.9031,-0.642038 1.86267,-1.160621 2.83634,-1.651 l 2.1237,-1.104186 c 3.8735,-0.899583 7.15433,-1.153583 9.62731,-1.153583 3.24557,0 5.10117,0.437436 5.10117,0.437436 -3.6054,2.88925 -6.61458,5.757333 -9.09108,8.576045 l -0.3175,0.183436 -2.20486,1.548685 c -0.74437,0.497417 -1.47108,1.012481 -2.11314,1.612212 -5.47159,4.445 -9.55675,10.135288 -11.86392,16.580538 -1.16417,3.20675 -1.9685,6.5581475 -2.37773,9.9659808 -0.18344,1.7039167 -0.31395,3.41489768 -0.3175,5.11174995 -0.014,0.85018565 0.003,1.68626895 0.0494,2.50824995 0.0388,0.762 0.127,1.7533144 0.20815,2.1343144 0.003,0.021167 0.007,0.042333 0.0106,0.0635 0.007,0.024606 0.0106,0.052917 0.0177,0.077602 0.003,0.024606 0.007,0.045852 0.0106,0.070564 0.73025,4.0110833 -1.66158,7.9057499 -5.49627,9.1122499"
         style="fill:#000072;fill-opacity:1;fill-rule:nonzero;stroke:none;stroke-width:0.0352777" />
      <path
         id="path56"
         d="m 133.76595,-6.6670455 -13.88886,-6.3746855 c 0.71967,-2.829295 1.31586,-5.640917 1.80269,-8.441981 1.60163,-0.225769 3.0833,-0.416269 4.42383,-0.567981 5.16115,-0.596186 8.32909,-0.705538 9.0029,-0.719667 0.0917,-0.0034 0.18698,-0.0071 0.27869,-0.0071 3.58775,0 6.56873,2.367121 7.56356,5.61975 0.0423,0.130518 0.0776,0.261037 0.10935,0.391583 0.14465,0.578538 0.22932,1.178269 0.24696,1.799166 0.10584,4.416769 -3.38666,8.0856671 -7.80346,8.1950193 -0.10229,0.00344 -0.69495,0.028231 -1.73566,0.1058334"
         style="fill:#000072;fill-opacity:1;fill-rule:nonzero;stroke:none;stroke-width:0.0352777" />
      <path
         id="path57"
         d="M 66.314845,-7.8382765 C 65.877409,-32.687943 77.55789,-54.570731 89.097242,-70.043564 c 2.00025,5.168186 4.212167,12.005019 6.5405,21.053769 2.988019,11.627564 5.171708,23.124583 6.413498,30.32125 -13.331479,2.966852 -25.329433,6.812147 -35.736395,10.8302685"
         style="fill:#cc6e88;fill-opacity:1;fill-rule:nonzero;stroke:none;stroke-width:0.0352777" />
      <path
         id="path58"
         d="m 66.371307,-6.0214622 c -0.02823,-0.6067689 -0.04588,-1.2135643 -0.05646,-1.8168143 10.406962,-4.0181215 22.404916,-7.8634165 35.736393,-10.8302685 -1.24179,-7.196667 -3.425477,-18.693686 -6.413496,-30.32125 -2.328333,-9.04875 -4.54025,-15.885583 -6.5405,-21.053769 2.010834,-2.695231 4.014602,-5.196416 5.951352,-7.482416 8.424334,18.404416 14.015854,47.145204 15.910264,57.876704 -11.810995,2.345981 -27.216782,6.452314 -44.587551,13.6278138"
         style="fill:#000072;fill-opacity:1;fill-rule:nonzero;stroke:none;stroke-width:0.0352777" />
      <path
         id="path59"
         d="M 67.059224,1.5032877 C 66.69939,-1.0296479 66.473595,-3.5378978 66.371307,-6.0214622 83.742076,-13.196962 99.147863,-17.303295 110.95886,-19.649276 c 0.47273,2.670545 0.71615,4.226295 0.71615,4.226295 -16.386518,4.201583 -31.67237,10.4845378 -44.615786,16.9262687"
         style="fill:#000072;fill-opacity:1;fill-rule:nonzero;stroke:none;stroke-width:0.0352777" />
      <path
         id="path60"
         d="m 430.16984,132.47556 c -7.80698,-18.72544 -16.9404,-34.268838 -25.74219,-46.743042 10.54804,-28.109333 28.58559,-47.702628 44.28771,-60.384981 1.90148,4.392084 4.63902,19.289898 -6.9991,66.202269 -3.71475,14.954254 -8.00807,29.566314 -11.54642,40.925754"
         style="fill:#cc6e88;fill-opacity:1;fill-rule:nonzero;stroke:none;stroke-width:0.0352777" />
      <path
         id="path61"
         d="m 430.57553,156.98304 c -7.90221,-25.26948 -18.72544,-45.77644 -29.32994,-61.704356 0.96308,-3.284378 2.02848,-6.466416 3.18206,-9.546166 8.80179,12.474204 17.93521,28.017602 25.74219,46.743042 3.53835,-11.35944 7.83167,-25.9715 11.54642,-40.925754 11.63812,-46.912371 8.90058,-61.810185 6.9991,-66.202269 2.20485,-1.781518 4.36385,-3.425481 6.44877,-4.935352 14.54856,24.909621 -24.5886,136.570855 -24.5886,136.570855"
         style="fill:#000072;fill-opacity:1;fill-rule:nonzero;stroke:none;stroke-width:0.0352777" />
    </g>
  </g>
</svg>
