<?xml version="1.0" encoding="UTF-8" standalone="no"?>
<!-- Created with Inkscape (http://www.inkscape.org/) -->

<svg
   width="210mm"
   height="297mm"
   viewBox="0 0 210 297"
   version="1.1"
   id="svg1"
   inkscape:version="1.3 (0e150ed, 2023-07-21)"
   sodipodi:docname="pawn.svg"
   xmlns:inkscape="http://www.inkscape.org/namespaces/inkscape"
   xmlns:sodipodi="http://sodipodi.sourceforge.net/DTD/sodipodi-0.dtd"
   xmlns="http://www.w3.org/2000/svg"
   xmlns:svg="http://www.w3.org/2000/svg">
  <sodipodi:namedview
     id="namedview1"
     pagecolor="#ffffff"
     bordercolor="#000000"
     borderopacity="0.25"
     inkscape:showpageshadow="2"
     inkscape:pageopacity="0.0"
     inkscape:pagecheckerboard="0"
     inkscape:deskcolor="#d1d1d1"
     inkscape:document-units="mm"
     inkscape:zoom="0.78751403"
     inkscape:cx="397.45324"
     inkscape:cy="561.25984"
     inkscape:window-width="1392"
     inkscape:window-height="1027"
     inkscape:window-x="42"
     inkscape:window-y="25"
     inkscape:window-maximized="0"
     inkscape:current-layer="layer1" />
  <defs
     id="defs1" />
  <g
     inkscape:label="Capa 1"
     inkscape:groupmode="layer"
     id="layer1">
    <g
       id="g4"
       transform="matrix(20.373668,0,0,20.373668,-2941.8972,-980.09653)">
      <path
         id="path18"
         d="m 149.0889,52.598336 c -0.78689,0.02045 -2.14893,0.662224 -2.9932,1.805947 -0.84493,1.143723 -0.99598,2.441129 -0.37926,2.858647 0.61737,0.418837 2.00975,-0.296814 2.75575,-0.01385 0.74599,0.283622 1.57575,1.238043 2.57568,1.112062 1.00059,-0.125981 0.86604,-2.755751 0.39114,-3.908708 -0.47491,-1.154936 -1.10349,-1.886417 -2.35011,-1.854097"
         style="fill:#f686a0;fill-opacity:1;fill-rule:nonzero;stroke:none;stroke-width:0.0659586" />
      <path
         id="path19"
         d="m 154.17167,52.618123 c -0.3199,-0.416199 -1.03423,-0.354197 -1.59488,0.132577 -0.56065,0.488094 -0.75522,1.216277 -0.43466,1.632476 0.31989,0.41554 1.03423,0.362113 1.59422,-0.125321 0.56064,-0.486775 0.75588,-1.223533 0.43532,-1.639732"
         style="fill:#f686a0;fill-opacity:1;fill-rule:nonzero;stroke:none;stroke-width:0.0659586" />
      <path
         id="path20"
         d="m 148.36533,51.903791 c 0.67608,-0.04353 1.18396,-0.879228 1.09887,-1.866629 -0.0739,-0.986081 -0.67607,-1.741308 -1.34423,-1.6892 -0.66816,0.05343 -1.149,0.887143 -1.07447,1.86465 0.0857,0.978826 0.64574,1.735372 1.31983,1.691179"
         style="fill:#f686a0;fill-opacity:1;fill-rule:nonzero;stroke:none;stroke-width:0.0659586" />
      <path
         id="path21"
         d="m 146.50134,51.486273 c -0.31462,-0.660246 -0.97618,-0.993996 -1.41877,-0.746651 -0.4406,0.247345 -0.5646,0.976187 -0.24075,1.634454 0.32056,0.656948 0.95113,0.996635 1.40954,0.752588 0.45775,-0.243387 0.56988,-0.980145 0.24998,-1.640391"
         style="fill:#f686a0;fill-opacity:1;fill-rule:nonzero;stroke:none;stroke-width:0.0659586" />
      <path
         id="path22"
         d="m 152.56228,51.327313 c 0.39509,-0.901654 0.22294,-1.88114 -0.3852,-2.182571 -0.60814,-0.300771 -1.42206,0.186003 -1.81716,1.081062 -0.38256,0.896378 -0.24668,1.862672 0.34958,2.169379 0.59693,0.306048 1.4346,-0.168854 1.85278,-1.06787"
         style="fill:#f686a0;fill-opacity:1;fill-rule:nonzero;stroke:none;stroke-width:0.0659586" />
    </g>
  </g>
</svg>
